HIERARCHY
ROOT Hips
{
	OFFSET 0.000000 0.000000 0.000000
	CHANNELS 6 Xposition Yposition Zposition Xrotation Yrotation Zrotation
	JOINT LeftUpLeg_virtual
	{
		OFFSET 0.000000 0.000000 0.000000
		CHANNELS 3 Xrotation Yrotation Zrotation
		JOINT LeftUpLeg
		{
			OFFSET 11.394100 -6.187798 -0.413800
			CHANNELS 3 Xrotation Yrotation Zrotation
			JOINT LeftLeg
			{
				OFFSET 0.430247 -32.302673 3.732800
				CHANNELS 3 Xrotation Yrotation Zrotation
				JOINT LeftFoot
				{
					OFFSET -0.430247 -48.264931 -6.423300
					CHANNELS 3 Xrotation Yrotation Zrotation
					JOINT LeftToeBase
					{
						OFFSET 4.230900 -16.068199 23.438400
						CHANNELS 3 Xrotation Yrotation Zrotation
						JOINT LeftToe_End
						{
							OFFSET 4.510700 0.695400 19.974600
							CHANNELS 3 Xrotation Yrotation Zrotation
							End Site
							{
								OFFSET 0 0 0
							}
						}
					}
				}
			}
		}
	}
	JOINT RightUpLeg_virtual
	{
		OFFSET 0.000000 0.000000 0.000000
		CHANNELS 3 Xrotation Yrotation Zrotation
		JOINT RightUpLeg
		{
			OFFSET -11.333700 -6.187798 -0.413800
			CHANNELS 3 Xrotation Yrotation Zrotation
			JOINT RightLeg
			{
				OFFSET -0.430392 -32.302628 3.733000
				CHANNELS 3 Xrotation Yrotation Zrotation
				JOINT RightFoot
				{
					OFFSET 0.430392 -48.264973 -6.423500
					CHANNELS 3 Xrotation Yrotation Zrotation
					JOINT RightToeBase
					{
						OFFSET -4.230900 -16.068199 23.438400
						CHANNELS 3 Xrotation Yrotation Zrotation
						JOINT RightToe_End
						{
							OFFSET -4.510700 0.695400 19.974600
							CHANNELS 3 Xrotation Yrotation Zrotation
							End Site
							{
								OFFSET 0 0 0
							}
						}
					}
				}
			}
		}
	}
	JOINT Spine_virtual
	{
		OFFSET 0.000000 0.000000 0.000000
		CHANNELS 3 Xrotation Yrotation Zrotation
		JOINT Spine
		{
			OFFSET -0.002400 12.777504 0.315300
			CHANNELS 3 Xrotation Yrotation Zrotation
			JOINT Spine1
			{
				OFFSET -0.002067 5.816869 0.032633
				CHANNELS 3 Xrotation Yrotation Zrotation
				JOINT Spine1_split
				{
					OFFSET -0.002067 5.816869 0.032633
					CHANNELS 3 Xrotation Yrotation Zrotation
					JOINT Spine2
					{
						OFFSET -0.002067 5.816869 0.032633
						CHANNELS 3 Xrotation Yrotation Zrotation
						JOINT Neck_virtual
						{
							OFFSET 0.000000 0.000000 0.000000
							CHANNELS 3 Xrotation Yrotation Zrotation
							JOINT Neck
							{
								OFFSET -0.003700 21.199493 -0.826900
								CHANNELS 3 Xrotation Yrotation Zrotation
								JOINT Head
								{
									OFFSET 0.000000 20.442200 4.834800
									CHANNELS 3 Xrotation Yrotation Zrotation
									JOINT HeadTop_End
									{
										OFFSET 0.000000 34.668396 4.968400
										CHANNELS 3 Xrotation Yrotation Zrotation
										End Site
										{
											OFFSET 0 0 0
										}
									}
								}
							}
						}
						JOINT LeftShoulder_virtual
						{
							OFFSET 0.000000 0.000000 0.000000
							CHANNELS 3 Xrotation Yrotation Zrotation
							JOINT LeftShoulder
							{
								OFFSET 3.288150 8.794197 -1.372250
								CHANNELS 3 Xrotation Yrotation Zrotation
								JOINT LeftShoulder_split
								{
									OFFSET 3.288150 8.794197 -1.372250
									CHANNELS 3 Xrotation Yrotation Zrotation
									JOINT LeftArm
									{
										OFFSET 11.953299 -2.279007 -0.146200
										CHANNELS 3 Xrotation Yrotation Zrotation
										JOINT LeftForeArm
										{
											OFFSET 18.448900 0.000000 0.000000
											CHANNELS 3 Xrotation Yrotation Zrotation
											JOINT LeftHand
											{
												OFFSET 29.527798 0.000000 0.000000
												CHANNELS 3 Xrotation Yrotation Zrotation
												End Site
												{
													OFFSET 0 0 0
												}
											}
										}
									}
								}
							}
						}
						JOINT RightShoulder_virtual
						{
							OFFSET 0.000000 0.000000 0.000000
							CHANNELS 3 Xrotation Yrotation Zrotation
							JOINT RightShoulder
							{
								OFFSET -3.249400 8.794197 -1.372250
								CHANNELS 3 Xrotation Yrotation Zrotation
								JOINT RightShoulder_split
								{
									OFFSET -3.249400 8.794197 -1.372250
									CHANNELS 3 Xrotation Yrotation Zrotation
									JOINT RightArm
									{
										OFFSET -11.953299 -2.279007 -0.146200
										CHANNELS 3 Xrotation Yrotation Zrotation
										JOINT RightForeArm
										{
											OFFSET -18.448900 0.000000 0.000000
											CHANNELS 3 Xrotation Yrotation Zrotation
											JOINT RightHand
											{
												OFFSET -29.527802 0.000000 0.000000
												CHANNELS 3 Xrotation Yrotation Zrotation
												End Site
												{
													OFFSET 0 0 0
												}
											}
										}
									}
								}
							}
						}
					}
				}
			}
		}
	}
}
MOTION
Frames: 4
Frame Time: 0.03333333
11.334788 23.761486 -35.267872 0.000000 0.000000 0.000000 68.728321 6.970331 -3.701968 -13.192259 -8.260716 29.286536 33.269845 -0.792143 -11.976778 33.045019 49.195554 -28.252893 -6.228327 -8.630744 -4.858529 0.000000 0.000000 0.000000 70.964682 3.153583 -3.417598 -42.080529 -38.064958 -37.122799 38.197556 24.865213 -10.813467 45.241821 -41.200664 35.438143 16.029141 17.544099 6.270394 0.000000 0.000000 0.000000 75.358133 6.384950 -6.394073 15.530313 0.910945 -2.160160 -8.389239 -3.757413 -0.126177 -0.021905 0.430952 -0.017839 0.000000 0.000000 0.000000 -6.824502 -0.957696 1.220672 -8.057141 1.555249 12.584536 -25.358978 -35.646884 -11.583010 0.000000 0.000000 0.000000 -11.376673 -1.277582 -0.904124 -0.757385 -11.546864 4.921672 -0.055653 1.423807 -5.396680 29.917294 -32.439089 -54.563427 -6.928189 -36.540904 -6.463014 0.000000 0.000000 0.000000 -8.056434 -2.515170 0.124821 5.057664 2.873185 8.229286 -24.801192 1.820528 4.993652 21.426560 16.646887 46.741635 -19.369875 32.139889 28.022989 0.000000 0.000000 0.000000 
11.334515 23.762436 -35.272404 0.000000 0.000000 0.000000 68.726067 6.964094 -3.693193 -13.186250 -8.266376 29.284863 33.273489 -0.789381 -11.978771 33.057542 49.194311 -28.260538 -6.217298 -8.628083 -4.866199 0.000000 0.000000 0.000000 70.957217 3.153235 -3.416240 -42.069587 -38.069364 -37.120125 38.213781 24.861923 -10.816056 45.236418 -41.201173 35.441766 16.042728 17.548966 6.264285 0.000000 0.000000 0.000000 75.359936 6.394469 -6.396458 15.535048 0.914774 -2.163301 -8.387873 -3.751494 -0.126180 -0.021363 0.432521 -0.017614 0.000000 0.000000 0.000000 -6.821945 -0.955041 1.220565 -8.060059 1.553232 12.602028 -25.354238 -35.666705 -11.581370 0.000000 0.000000 0.000000 -11.375436 -1.272868 -0.906608 -0.752308 -11.563516 4.927433 -0.080753 1.425945 -5.375028 29.914904 -32.432313 -54.563871 -6.933722 -36.522879 -6.461958 0.000000 0.000000 0.000000 -8.055437 -2.510889 0.125180 5.055433 2.862383 8.225936 -24.809653 1.803755 4.986565 21.402198 16.598823 46.789968 -19.391510 32.128636 28.043432 0.000000 0.000000 0.000000 
11.334680 23.766296 -35.278538 0.000000 0.000000 0.000000 68.720760 6.962206 -3.687484 -13.182385 -8.266087 29.280341 33.278369 -0.777852 -11.976106 33.074542 49.193700 -28.266647 -6.207982 -8.623314 -4.878777 0.000000 0.000000 0.000000 70.948925 3.151582 -3.415141 -42.042113 -38.085463 -37.107660 38.219007 24.844115 -10.814758 45.215583 -41.221991 35.433454 16.060970 17.560124 6.252800 0.000000 0.000000 0.000000 75.357286 6.408799 -6.404308 15.545225 0.922688 -2.169643 -8.385958 -3.745009 -0.125100 -0.020932 0.435442 -0.018346 0.000000 0.000000 0.000000 -6.817303 -0.950879 1.221579 -8.059921 1.539207 12.652265 -25.367155 -35.703502 -11.595166 0.000000 0.000000 0.000000 -11.376711 -1.266978 -0.906576 -0.744871 -11.599675 4.944670 -0.090077 1.425528 -5.373154 29.897265 -32.435872 -54.557024 -6.931080 -36.476875 -6.456238 0.000000 0.000000 0.000000 -8.055945 -2.507248 0.127062 5.046673 2.824553 8.221841 -24.821329 1.789802 4.984089 21.368645 16.531534 46.832811 -19.429180 32.096541 28.090125 0.000000 0.000000 0.000000 
11.333821 23.771755 -35.286549 0.000000 0.000000 0.000000 68.714326 6.966242 -3.685245 -13.185746 -8.263346 29.273965 33.286835 -0.763744 -11.968316 33.092960 49.191326 -28.273560 -6.194690 -8.617122 -4.895911 0.000000 0.000000 0.000000 70.936876 3.149253 -3.411123 -42.009427 -38.107162 -37.093938 38.216333 24.819026 -10.811194 45.191342 -41.248052 35.425405 16.079782 17.575731 6.238134 0.000000 0.000000 0.000000 75.351924 6.423477 -6.414036 15.559772 0.933673 -2.178254 -8.382909 -3.738146 -0.123640 -0.021680 0.438679 -0.019115 0.000000 0.000000 0.000000 -6.811571 -0.945395 1.222856 -8.057993 1.516681 12.727757 -25.416418 -35.750556 -11.633223 0.000000 0.000000 0.000000 -11.378769 -1.260185 -0.904871 -0.735711 -11.652520 4.969742 -0.091350 1.420977 -5.394204 29.869373 -32.450939 -54.541325 -6.922226 -36.398679 -6.447783 0.000000 0.000000 0.000000 -8.056408 -2.503639 0.130256 5.033145 2.767271 8.212480 -24.832310 1.786916 5.000991 21.333534 16.458145 46.850368 -19.480200 32.058183 28.159533 0.000000 0.000000 0.000000 
